# xmcd
#
# Track frame offsets: 
#        150
#        18680
#        31420
#        50085
#        60070
#        78478
#        96088
#        116420
#        134285
#        156933
#
# Disc length: 2377 seconds
#
# Revision: 0
# Processed by: cddbd v1.5.2PL0 Copyright (c) Steve Scherf et al.
# Submitted via: ExactAudioCopy v0.99pb3
#
DISCID=7b09470a
DTITLE=Joice Walton - Downsville Girl
DYEAR=1994
DGENRE=Blues
TTITLE0=Don't Know Where I'm Goin'
TTITLE1=Fast Train
TTITLE2=Funky Blues
TTITLE3=Blacktop Baby
TTITLE4=Life's Revolving Door
TTITLE5=Make Yourself At Home
TTITLE6=When Daddy Sang
TTITLE7=Come As You Are
TTITLE8=One Way Street
TTITLE9=Blessed With The Blues
EXTD=
EXTT0=
EXTT1=
EXTT2=
EXTT3=
EXTT4=
EXTT5=
EXTT6=
EXTT7=
EXTT8=
EXTT9=
PLAYORDER=
